<svg width="76" height="32" viewBox="0 0 76 32" fill="none" xmlns="http://www.w3.org/2000/svg">
<path d="M24.5733 17.3333C25.0533 18.0227 25.3333 18.8627 25.3333 19.7707C25.3333 22.1067 23.4693 24 21.1693 24C20.7622 23.9991 20.3724 23.9427 20 23.8307M25.3067 13.3333C27.7133 14.692 29.3333 17.232 29.3333 20.1413C29.3333 24.4813 25.7307 28 21.2867 28C19.3505 28.0054 17.4759 27.3198 16 26.0667" stroke="#763DF1" stroke-width="2" stroke-linecap="round" stroke-linejoin="round"/>
<path d="M11.9998 18.6667C14.9454 18.6667 17.3332 16.2789 17.3332 13.3333C17.3332 10.3878 14.9454 8 11.9998 8C9.05432 8 6.6665 10.3878 6.6665 13.3333C6.6665 16.2789 9.05432 18.6667 11.9998 18.6667Z" stroke="#763DF1" stroke-width="2" stroke-linecap="round" stroke-linejoin="round"/>
<path d="M11.9998 22.6667C17.1545 22.6667 21.3332 18.488 21.3332 13.3333C21.3332 8.17868 17.1545 4 11.9998 4C6.84518 4 2.6665 8.17868 2.6665 13.3333C2.6665 18.488 6.84518 22.6667 11.9998 22.6667Z" stroke="#763DF1" stroke-width="2" stroke-linecap="round" stroke-linejoin="round"/>
<path d="M39.846 22V20.38L47.154 9.958L47.784 10.894H40.062V9.04H49.494V10.66L42.258 20.992L41.646 20.146H49.602V22H39.846ZM54.9803 22.18C54.0083 22.18 53.1563 21.976 52.4243 21.568C51.7043 21.16 51.1403 20.596 50.7323 19.876C50.3363 19.156 50.1383 18.328 50.1383 17.392C50.1383 16.456 50.3363 15.634 50.7323 14.926C51.1403 14.206 51.7043 13.648 52.4243 13.252C53.1443 12.844 53.9843 12.64 54.9443 12.64C55.8563 12.64 56.6483 12.832 57.3203 13.216C57.9923 13.588 58.5143 14.116 58.8863 14.8C59.2583 15.484 59.4443 16.282 59.4443 17.194C59.4443 17.362 59.4383 17.518 59.4263 17.662C59.4143 17.806 59.3963 17.95 59.3723 18.094H51.5423V16.51H57.6263L57.1583 16.942C57.1583 16.078 56.9603 15.43 56.5643 14.998C56.1683 14.566 55.6163 14.35 54.9083 14.35C54.1403 14.35 53.5283 14.614 53.0723 15.142C52.6283 15.67 52.4063 16.432 52.4063 17.428C52.4063 18.412 52.6283 19.168 53.0723 19.696C53.5283 20.212 54.1703 20.47 54.9983 20.47C55.4783 20.47 55.8983 20.38 56.2583 20.2C56.6183 20.02 56.8823 19.744 57.0503 19.372H59.1923C58.8923 20.236 58.3823 20.92 57.6623 21.424C56.9543 21.928 56.0603 22.18 54.9803 22.18ZM61.1415 22V12.82H63.3555V14.98H63.4095V22H61.1415ZM67.5855 22V16.204C67.5855 15.64 67.4415 15.214 67.1535 14.926C66.8655 14.638 66.4455 14.494 65.8935 14.494C65.4135 14.494 64.9815 14.602 64.5975 14.818C64.2255 15.034 63.9315 15.334 63.7155 15.718C63.5115 16.102 63.4095 16.546 63.4095 17.05L63.1755 14.854C63.4875 14.182 63.9435 13.648 64.5435 13.252C65.1435 12.844 65.8635 12.64 66.7035 12.64C67.6995 12.64 68.4735 12.922 69.0255 13.486C69.5895 14.05 69.8715 14.8 69.8715 15.736V22H67.5855ZM72.0927 22V12.82H74.3607V22H72.0927ZM71.9847 11.308V8.806H74.4507V11.308H71.9847Z" fill="#0C0618"/>
</svg>
