<svg width="52" height="52" viewBox="0 0 52 52" fill="none" xmlns="http://www.w3.org/2000/svg">
<circle cx="26" cy="26" r="25.5" fill="#FFE6E6" stroke="#E7C8C8"/>
<path d="M31.625 21.125L31.16 28.6437C31.0415 30.5645 30.9823 31.5253 30.5 32.216C30.2619 32.5574 29.9554 32.8455 29.6 33.062C28.8822 33.5 27.92 33.5 25.9955 33.5C24.068 33.5 23.1042 33.5 22.385 33.0613C22.0294 32.8443 21.7229 32.5557 21.485 32.2137C21.0035 31.5222 20.945 30.56 20.8295 28.6363L20.375 21.125M19.25 21.125H32.75M29.042 21.125L28.5298 20.069C28.19 19.367 28.0198 19.0168 27.7265 18.7978C27.6614 18.7492 27.5924 18.7061 27.5203 18.6687C27.1955 18.5 26.8055 18.5 26.0262 18.5C25.2267 18.5 24.827 18.5 24.4962 18.6755C24.4231 18.7147 24.3534 18.7598 24.2878 18.8105C23.9915 19.0378 23.8258 19.4015 23.4943 20.1283L23.0398 21.125" stroke="#CF0404" stroke-linecap="round" stroke-linejoin="round"/>
</svg>
