<svg width="18" height="18" viewBox="0 0 18 18" fill="none" xmlns="http://www.w3.org/2000/svg">
<g opacity="0.6">
<path fill-rule="evenodd" clip-rule="evenodd" d="M10.5 2.10974C13.4775 2.10974 14.9775 2.10974 16.02 3.15224C17.0625 4.19474 17.0625 5.68724 17.0625 8.67224V10.1722C17.0625 13.1497 17.0625 14.6497 16.02 15.6922C14.9775 16.7347 13.4775 16.7347 10.5 16.7347H7.5C4.5225 16.7347 3.0225 16.7347 1.98 15.6922C0.9375 14.6497 0.9375 13.1572 0.9375 10.1722V8.67224C0.9375 5.69474 0.9375 4.19474 1.98 3.15224C3.0225 2.10974 4.5225 2.10974 7.5 2.10974H10.5ZM2.775 3.94724C2.0625 4.65974 2.0625 6.00224 2.0625 8.67224H2.055V10.1722C2.055 11.2522 2.0625 12.1147 2.1075 12.8047L4.1925 10.4647C4.71 9.87224 5.7225 9.84224 6.2775 10.4047L7.5 11.6272L10.5975 8.52974C11.145 7.98224 12.135 7.99724 12.675 8.57474L15.9225 12.1147C15.9375 11.5597 15.9375 10.9222 15.9375 10.1722V8.67224C15.9375 6.00224 15.9375 4.65974 15.225 3.94724C14.5125 3.23474 13.17 3.23474 10.5 3.23474H7.5C4.83 3.23474 3.4875 3.23474 2.775 3.94724ZM7.5 15.6097H10.5V15.6022C13.17 15.6022 14.5125 15.6022 15.225 14.8897C15.525 14.5972 15.6975 14.1772 15.795 13.6072L15.7125 13.5472L11.85 9.33224C11.73 9.20474 11.5125 9.19724 11.3925 9.31724L7.8975 12.8122C7.6875 13.0222 7.3125 13.0222 7.1025 12.8122L5.4825 11.1922C5.45262 11.1639 5.4174 11.1417 5.37887 11.1271C5.34035 11.1124 5.29929 11.1056 5.25811 11.107C5.21692 11.1084 5.17642 11.118 5.13898 11.1352C5.10153 11.1524 5.06788 11.1769 5.04 11.2072L2.3625 14.2222C2.46 14.4922 2.595 14.7172 2.775 14.8972C3.4875 15.6097 4.83 15.6097 7.5 15.6097ZM8.0625 6.79724C8.0625 7.72724 7.305 8.48474 6.375 8.48474C5.445 8.48474 4.6875 7.72724 4.6875 6.79724C4.6875 5.86724 5.445 5.10974 6.375 5.10974C7.305 5.10974 8.0625 5.86724 8.0625 6.79724ZM6.9375 6.79724C6.9375 6.48974 6.6825 6.23474 6.375 6.23474C6.0675 6.23474 5.8125 6.48974 5.8125 6.79724C5.8125 7.10474 6.0675 7.35974 6.375 7.35974C6.6825 7.35974 6.9375 7.10474 6.9375 6.79724Z" fill="black"/>
</g>
</svg>
