<svg width="125" height="62" viewBox="0 0 125 62" fill="none" xmlns="http://www.w3.org/2000/svg">
<rect width="125" height="62" fill="white"/>
<path d="M44.5733 32.3333C45.0533 33.0226 45.3333 33.8626 45.3333 34.7706C45.3333 37.1066 43.4693 38.9999 41.1693 38.9999C40.7622 38.999 40.3724 38.9426 40 38.8306M45.3067 28.3333C47.7133 29.6919 49.3333 32.2319 49.3333 35.1413C49.3333 39.4813 45.7307 42.9999 41.2867 42.9999C39.3505 43.0053 37.4759 42.3197 36 41.0666" stroke="#763DF1" stroke-width="2" stroke-linecap="round" stroke-linejoin="round"/>
<path d="M32 33.6667C34.9455 33.6667 37.3334 31.2789 37.3334 28.3333C37.3334 25.3878 34.9455 23 32 23C29.0545 23 26.6667 25.3878 26.6667 28.3333C26.6667 31.2789 29.0545 33.6667 32 33.6667Z" stroke="#763DF1" stroke-width="2" stroke-linecap="round" stroke-linejoin="round"/>
<path d="M32 37.6667C37.1547 37.6667 41.3334 33.488 41.3334 28.3333C41.3334 23.1787 37.1547 19 32 19C26.8454 19 22.6667 23.1787 22.6667 28.3333C22.6667 33.488 26.8454 37.6667 32 37.6667Z" stroke="#763DF1" stroke-width="2" stroke-linecap="round" stroke-linejoin="round"/>
<path d="M59.846 37V35.38L67.154 24.958L67.784 25.894H60.062V24.04H69.494V25.66L62.258 35.992L61.646 35.146H69.602V37H59.846ZM74.9803 37.18C74.0083 37.18 73.1563 36.976 72.4243 36.568C71.7043 36.16 71.1403 35.596 70.7323 34.876C70.3363 34.156 70.1383 33.328 70.1383 32.392C70.1383 31.456 70.3363 30.634 70.7323 29.926C71.1403 29.206 71.7043 28.648 72.4243 28.252C73.1443 27.844 73.9843 27.64 74.9443 27.64C75.8563 27.64 76.6483 27.832 77.3203 28.216C77.9923 28.588 78.5143 29.116 78.8863 29.8C79.2583 30.484 79.4443 31.282 79.4443 32.194C79.4443 32.362 79.4383 32.518 79.4263 32.662C79.4143 32.806 79.3963 32.95 79.3723 33.094H71.5423V31.51H77.6263L77.1583 31.942C77.1583 31.078 76.9603 30.43 76.5643 29.998C76.1683 29.566 75.6163 29.35 74.9083 29.35C74.1403 29.35 73.5283 29.614 73.0723 30.142C72.6283 30.67 72.4063 31.432 72.4063 32.428C72.4063 33.412 72.6283 34.168 73.0723 34.696C73.5283 35.212 74.1703 35.47 74.9983 35.47C75.4783 35.47 75.8983 35.38 76.2583 35.2C76.6183 35.02 76.8823 34.744 77.0503 34.372H79.1923C78.8923 35.236 78.3823 35.92 77.6623 36.424C76.9543 36.928 76.0603 37.18 74.9803 37.18ZM81.1415 37V27.82H83.3555V29.98H83.4095V37H81.1415ZM87.5855 37V31.204C87.5855 30.64 87.4415 30.214 87.1535 29.926C86.8655 29.638 86.4455 29.494 85.8935 29.494C85.4135 29.494 84.9815 29.602 84.5975 29.818C84.2255 30.034 83.9315 30.334 83.7155 30.718C83.5115 31.102 83.4095 31.546 83.4095 32.05L83.1755 29.854C83.4875 29.182 83.9435 28.648 84.5435 28.252C85.1435 27.844 85.8635 27.64 86.7035 27.64C87.6995 27.64 88.4735 27.922 89.0255 28.486C89.5895 29.05 89.8715 29.8 89.8715 30.736V37H87.5855ZM92.0927 37V27.82H94.3607V37H92.0927ZM91.9847 26.308V23.806H94.4507V26.308H91.9847Z" fill="#0C0618"/>
</svg>
