<svg width="32" height="32" viewBox="0 0 32 32" fill="none" xmlns="http://www.w3.org/2000/svg">
<path d="M29.3337 16C29.3337 23.364 23.3643 29.3333 16.0003 29.3333C8.63633 29.3333 2.66699 23.364 2.66699 16C2.66699 8.63601 8.63633 2.66667 16.0003 2.66667C23.3643 2.66667 29.3337 8.63601 29.3337 16Z" stroke="#666666" stroke-width="2" stroke-linecap="round" stroke-linejoin="round"/>
<path d="M7.33398 25.3333L8.08065 24.0267C8.66372 23.0059 9.50633 22.1575 10.5231 21.5674C11.5398 20.9773 12.6944 20.6666 13.87 20.6667H18.1313C19.3069 20.6666 20.4615 20.9773 21.4783 21.5674C22.495 22.1575 23.3376 23.0059 23.9207 24.0267L24.6673 25.3333M19.6673 12.6667C19.6673 13.6391 19.281 14.5718 18.5934 15.2594C17.9057 15.947 16.9731 16.3333 16.0007 16.3333C15.0282 16.3333 14.0956 15.947 13.4079 15.2594C12.7203 14.5718 12.334 13.6391 12.334 12.6667C12.334 11.6942 12.7203 10.7616 13.4079 10.0739C14.0956 9.38631 15.0282 9 16.0007 9C16.9731 9 17.9057 9.38631 18.5934 10.0739C19.281 10.7616 19.6673 11.6942 19.6673 12.6667Z" stroke="#666666" stroke-width="2" stroke-linecap="round" stroke-linejoin="round"/>
</svg>
