<svg width="18" height="18" viewBox="0 0 18 18" fill="none" xmlns="http://www.w3.org/2000/svg">
<g clip-path="url(#clip0_31_758)">
<path d="M14.2221 8.81706C14.4663 9.1677 14.6087 9.59499 14.6087 10.0569C14.6087 11.2451 13.6606 12.2082 12.4906 12.2082C12.2835 12.2078 12.0852 12.1791 11.8958 12.1221M14.5952 6.78235C15.8194 7.47347 16.6434 8.76551 16.6434 10.2454C16.6434 12.4531 14.8108 14.2429 12.5503 14.2429C11.5654 14.2457 10.6119 13.8969 9.86108 13.2595" stroke="#763DF1" stroke-linecap="round" stroke-linejoin="round"/>
<path d="M7.82635 9.49522C9.32466 9.49522 10.5393 8.2806 10.5393 6.78228C10.5393 5.28396 9.32466 4.06934 7.82635 4.06934C6.32803 4.06934 5.1134 5.28396 5.1134 6.78228C5.1134 8.2806 6.32803 9.49522 7.82635 9.49522Z" stroke="#763DF1" stroke-linecap="round" stroke-linejoin="round"/>
<path d="M7.82638 11.53C10.4484 11.53 12.574 9.40437 12.574 6.78232C12.574 4.16026 10.4484 2.03467 7.82638 2.03467C5.20433 2.03467 3.07874 4.16026 3.07874 6.78232C3.07874 9.40437 5.20433 11.53 7.82638 11.53Z" stroke="#763DF1" stroke-linecap="round" stroke-linejoin="round"/>
</g>
<path d="M3.05728 11.463L3.06413 10.7718L3.50902 11.3009C4.09214 11.9949 4.38369 12.3418 4.78046 12.529C5.17722 12.7162 5.63042 12.7205 6.5368 12.7292L7.22807 12.7361L6.69895 13.181L6.69712 13.1825C6.00437 13.7646 5.6574 14.0561 5.47083 14.4524C5.2841 14.849 5.27931 15.3024 5.27062 16.2087L5.26377 16.9L4.81888 16.3709L4.81734 16.3691C4.23525 15.6763 3.9437 15.3293 3.54744 15.1428C3.15083 14.956 2.69748 14.9513 1.79109 14.9426L1.09982 14.9357L1.62895 14.4908C2.32291 13.9077 2.66989 13.6161 2.85706 13.2194C3.04423 12.8226 3.04858 12.3694 3.05728 11.463Z" stroke="#763DF1" stroke-linecap="round" stroke-linejoin="round"/>
<defs>
<clipPath id="clip0_31_758">
<rect width="16.2777" height="16.2777" fill="white" transform="translate(1.72229)"/>
</clipPath>
</defs>
</svg>
